<svg width="1239" height="198" viewBox="0 0 1239 198" fill="none" xmlns="http://www.w3.org/2000/svg">
<path d="M154 13C154 13.9333 153.733 14.8 153.2 15.6C152.667 16.4 151.867 16.8 150.8 16.8C149.067 16.8 147.333 16.7333 145.6 16.6C144 16.4667 142.267 16.4 140.4 16.4C139.067 16.4 138.2 17 137.8 18.2C137.4 19.4 137.2 20.5333 137.2 21.6C137.2 30.1333 137.133 38.6667 137 47.2C137 55.6 137 64.1333 137 72.8C137 84.9333 137 97.0667 137 109.2C137.133 121.2 137.2 133.267 137.2 145.4C137.2 146.467 137.4 147.6 137.8 148.8C138.2 150 139.067 150.6 140.4 150.6C142.267 150.6 144 150.533 145.6 150.4C147.333 150.267 149.067 150.2 150.8 150.2C151.867 150.2 152.6 150.667 153 151.6C153.4 152.533 153.6 153.467 153.6 154.4C153.6 156.4 152.533 157.4 150.4 157.4C149.333 157.4 148.267 157.333 147.2 157.2C146.133 157.067 145.067 157 144 157C142 156.733 140 156.6 138 156.6C136 156.6 134 156.6 132 156.6C127.333 156.6 122.667 156.6 118 156.6C113.467 156.6 108.867 156.733 104.2 157C102.867 157 101.467 157.067 100 157.2C98.6667 157.333 97.2667 157.4 95.8 157.4C94.4667 157.4 93.5333 157 93 156.2C92.6 155.4 92.4 154.467 92.4 153.4C92.4 152.333 92.8 151.533 93.6 151C94.4 150.467 95.2667 150.2 96.2 150.2C97.6667 150.2 99 150.267 100.2 150.4C101.533 150.533 102.867 150.6 104.2 150.6C106.2 150.6 107.533 150.267 108.2 149.6C109 148.8 109.4 147.4 109.4 145.4V83.2H43.6V145.8C43.6 147.8 44 149.2 44.8 150C45.6 150.667 46.9333 151 48.8 151C50.1333 151 51.4667 150.933 52.8 150.8C54.1333 150.667 55.4667 150.6 56.8 150.6C57.8667 150.6 58.8 150.867 59.6 151.4C60.4 151.8 60.8 152.6 60.8 153.8C60.8 156.333 59.6 157.6 57.2 157.6C52.2667 157.6 47.3333 157.4 42.4 157C37.6 156.733 32.8 156.6 28 156.6C25.6 156.6 23.1333 156.6 20.6 156.6C18.2 156.6 15.8 156.667 13.4 156.8C11.6667 156.933 9.93333 157.067 8.2 157.2C6.6 157.467 4.93333 157.6 3.2 157.6C2.26667 157.6 1.53333 157.133 1 156.2C0.6 155.4 0.4 154.667 0.4 154C0.4 153.333 0.666667 152.6 1.2 151.8C1.73333 151 2.4 150.6 3.2 150.6C4.93333 150.6 6.6 150.667 8.2 150.8C9.93333 150.933 11.6667 151 13.4 151C14.8667 151 15.8 150.4 16.2 149.2C16.6 148 16.8 146.867 16.8 145.8C16.8 132.6 16.8 119.4 16.8 106.2C16.8 93 16.8 79.8 16.8 66.6C16.8 59.1333 16.8 51.6667 16.8 44.2C16.8 36.6 16.8 29.1333 16.8 21.8C16.8 20.7333 16.6 19.6 16.2 18.4C15.8 17.2 14.8667 16.6 13.4 16.6C11.6667 16.6 9.93333 16.6667 8.2 16.8C6.6 16.9333 4.93333 17 3.2 17C1.06667 17 2.98023e-08 15.8 2.98023e-08 13.4C2.98023e-08 12.4667 0.266667 11.6 0.8 10.8C1.33333 9.99999 2.13333 9.59999 3.2 9.59999C6.66667 9.59999 10.0667 9.73333 13.4 10C16.8667 10.2667 20.3333 10.4 23.8 10.4C29.2667 10.4 34.7333 10.2667 40.2 10C45.8 9.73333 51.3333 9.59999 56.8 9.59999C59.3333 9.59999 60.6 10.8667 60.6 13.4C60.6 15.1333 59.8667 16.1333 58.4 16.4C57.0667 16.6667 55.8 16.8 54.6 16.8C53.6667 16.8 52.7333 16.8 51.8 16.8C50.8667 16.6667 49.8667 16.6 48.8 16.6C47.0667 16.6 45.7333 17.1333 44.8 18.2C44 19.2667 43.6 20.6667 43.6 22.4V76.6H109.4V21.6C109.4 19.6 109 18.2667 108.2 17.6C107.533 16.8 106.2 16.4 104.2 16.4C102.867 16.4 101.533 16.4667 100.2 16.6C99 16.7333 97.6667 16.8 96.2 16.8C95.4 16.8 94.5333 16.4667 93.6 15.8C92.8 15.1333 92.4 14.3333 92.4 13.4C92.4 10.8667 93.6667 9.59999 96.2 9.59999C97.8 9.59999 99.4 9.66666 101 9.8C102.6 9.93333 104.2 10.0667 105.8 10.2C108.867 10.3333 111.933 10.4667 115 10.6C118.067 10.6 121.133 10.6 124.2 10.6C128.6 10.6 133 10.4667 137.4 10.2C141.933 9.79999 146.4 9.59999 150.8 9.59999C151.867 9.59999 152.667 9.93332 153.2 10.6C153.733 11.2667 154 12.0667 154 13ZM232.183 103.4C232.183 99 231.849 94 231.183 88.4C230.649 82.6667 229.449 77.1333 227.583 71.8C225.716 66.4667 222.983 62.0667 219.383 58.6C215.916 55 211.183 53.2 205.183 53.2C199.716 53.2 195.316 54.9333 191.983 58.4C188.649 61.8667 186.049 66.2 184.183 71.4C182.449 76.6 181.249 82 180.583 87.6C179.916 93.0667 179.583 97.8 179.583 101.8C179.583 106.2 179.849 111.267 180.383 117C181.049 122.6 182.316 128.067 184.183 133.4C186.049 138.733 188.783 143.133 192.383 146.6C195.983 150.067 200.783 151.8 206.783 151.8C212.383 151.8 216.849 150.133 220.183 146.8C223.649 143.333 226.249 139.067 227.983 134C229.716 128.8 230.849 123.467 231.383 118C231.916 112.4 232.183 107.533 232.183 103.4ZM259.383 104.4C259.383 114.667 257.049 123.8 252.383 131.8C247.716 139.667 241.316 145.867 233.183 150.4C225.183 154.933 216.049 157.2 205.783 157.2C195.516 157.2 186.449 154.8 178.583 150C170.716 145.2 164.516 138.733 159.983 130.6C155.583 122.467 153.383 113.333 153.383 103.2C153.383 92.6667 155.583 83.2667 159.983 75C164.383 66.6 170.583 60 178.583 55.2C186.583 50.2667 195.916 47.8 206.583 47.8C218.316 47.8 228.049 50.2 235.783 55C243.649 59.6667 249.516 66.2667 253.383 74.8C257.383 83.2 259.383 93.0667 259.383 104.4ZM422.206 51.2C422.206 52.8 421.74 53.7333 420.806 54C420.006 54.1333 419.073 54.2 418.006 54.2C416.273 54.2 414.473 54.4 412.606 54.8C410.873 55.0667 409.54 56.2 408.606 58.2C408.073 59.5333 407.606 61 407.206 62.6C406.806 64.0667 406.406 65.5333 406.006 67C401.873 81.9333 397.606 96.8667 393.206 111.8C388.806 126.6 384.34 141.4 379.806 156.2L357.806 157C354.473 144.6 350.806 132.333 346.806 120.2C342.806 107.933 339.006 95.6 335.406 83.2C331.54 95.4667 327.34 107.667 322.806 119.8C318.406 131.8 314.273 143.933 310.406 156.2L291.406 157C288.74 146.6 286.006 136.2 283.206 125.8C280.54 115.4 277.806 104.933 275.006 94.4C273.673 89.0667 272.34 83.7333 271.006 78.4C269.673 73.0667 268.206 67.7333 266.606 62.4C266.073 60.5333 265.34 59.2 264.406 58.4C263.473 57.4667 262.073 57 260.206 57C259.273 57 258.34 57.0667 257.406 57.2C256.606 57.3333 255.74 57.4 254.806 57.4C253.073 57.4 252.206 56.5333 252.206 54.8C252.206 53.0667 253.073 52 254.806 51.6C254.94 51.6 256.073 51.4667 258.206 51.2C260.34 50.9333 262.94 50.6667 266.006 50.4C269.073 50 272.14 49.6 275.206 49.2C278.406 48.8 281.14 48.5333 283.406 48.4C285.673 48.1333 286.94 48 287.206 48C288.273 48 288.94 48.2667 289.206 48.8C289.606 49.3333 289.873 50 290.006 50.8C291.206 55.3333 292.273 59.9333 293.206 64.6C294.273 69.1333 295.273 73.7333 296.206 78.4C298.34 87.7333 300.406 97.0667 302.406 106.4C304.406 115.733 306.406 125.133 308.406 134.6C312.273 121.133 316.34 107.667 320.606 94.2C325.006 80.7333 329.273 67.3333 333.406 54C334.073 52.1333 334.673 50.8 335.206 50C335.74 49.0667 337.073 48.5333 339.206 48.4C340.14 48.2667 341.073 48.2 342.006 48.2C343.073 48.0667 344.073 48 345.006 48C347.94 48 349.94 49.2 351.006 51.6C351.673 53.0667 352.14 54.6667 352.406 56.4C352.673 58 353.006 59.5333 353.406 61C354.34 64.0667 355.206 67.2 356.006 70.4C356.94 73.4667 357.873 76.5333 358.806 79.6C361.606 89.2 364.406 98.8 367.206 108.4C370.14 117.867 373.073 127.4 376.006 137C379.34 125.133 382.54 113.333 385.606 101.6C388.806 89.7333 391.74 77.8667 394.406 66C394.673 64.2667 395.006 62.6 395.406 61C395.94 59.2667 396.206 57.5333 396.206 55.8C396.206 54.8667 395.406 54.2667 393.806 54C392.34 53.7333 390.673 53.6667 388.806 53.8C387.073 53.8 385.873 53.8 385.206 53.8C383.073 53.8 382.006 52.9333 382.006 51.2C382.006 49.3333 382.94 48.4 384.806 48.4H419.406C421.273 48.4 422.206 49.3333 422.206 51.2ZM473.519 134.8C473.119 128.533 472.852 122.267 472.719 116C472.585 109.6 472.585 103.2 472.719 96.8C467.252 97.7333 461.919 99.4667 456.719 102C451.652 104.4 447.452 107.667 444.119 111.8C440.785 115.933 439.119 121.2 439.119 127.6C439.119 130.267 439.452 133.133 440.119 136.2C440.919 139.267 442.252 141.867 444.119 144C446.119 146 448.785 147 452.119 147C454.519 147 457.052 146.333 459.719 145C462.385 143.533 464.919 141.867 467.319 140C469.852 138.133 471.919 136.4 473.519 134.8ZM514.719 146.6C514.719 147.133 514.452 147.733 513.919 148.4C513.519 149.067 513.119 149.6 512.719 150C508.585 154.8 503.252 157.2 496.719 157.2C490.985 157.2 486.385 155.933 482.919 153.4C479.452 150.867 476.785 146.933 474.919 141.6C470.652 146.133 466.052 149.733 461.119 152.4C456.319 155.067 450.652 156.4 444.119 156.4C439.452 156.4 434.719 155.4 429.919 153.4C425.252 151.267 421.319 148.267 418.119 144.4C415.052 140.533 413.519 136.067 413.519 131C413.519 125.933 414.785 121.467 417.319 117.6C419.985 113.6 423.319 110.2 427.319 107.4C431.319 104.467 435.385 102.067 439.519 100.2C444.852 97.9333 450.319 96.2 455.919 95C461.519 93.6667 467.119 92.3333 472.719 91V90.2C472.719 87.8 472.652 84.6 472.519 80.6C472.519 76.4667 472.119 72.4 471.319 68.4C470.519 64.2667 469.185 60.8 467.319 58C465.452 55.0667 462.719 53.6 459.119 53.6C454.985 53.6 451.252 54.8 447.919 57.2C444.719 59.6 442.452 62.8 441.119 66.8C440.852 68 440.652 69.2 440.519 70.4C440.385 71.4667 440.185 72.6 439.919 73.8C439.652 75.9333 438.385 77.4 436.119 78.2C433.985 78.8667 431.985 79.2 430.119 79.2C427.852 79.2 425.652 78.7333 423.519 77.8C421.385 76.7333 420.319 74.8 420.319 72C420.319 70.9333 420.452 70 420.719 69.2C421.119 68.2667 421.519 67.3333 421.919 66.4C424.052 61.3333 427.252 57.6 431.519 55.2C435.785 52.8 440.452 51.2 445.519 50.4C450.719 49.6 455.652 49.2 460.319 49.2C471.252 49.2 480.252 52.1333 487.319 58C494.385 63.8667 497.919 72.5333 497.919 84V114.2C497.785 117.933 497.719 121.8 497.719 125.8C497.852 129.667 498.052 133.533 498.319 137.4C498.585 139.667 499.119 141.867 499.919 144C500.719 146 502.519 147 505.319 147C507.185 147 508.719 146.6 509.919 145.8C511.252 145 512.452 144.6 513.519 144.6C514.052 144.6 514.385 144.867 514.519 145.4C514.652 145.933 514.719 146.333 514.719 146.6ZM588.108 72.2C588.108 73.5333 587.708 74.8 586.908 76C586.241 77.0667 585.174 77.6 583.708 77.6C581.441 77.6 579.908 76.6667 579.108 74.8C578.308 73.0667 577.441 71.0667 576.508 68.8C575.708 66.4 574.574 64.3333 573.108 62.6C571.774 60.8667 569.841 60 567.308 60C565.974 60 564.708 60.2667 563.508 60.8C562.308 61.3333 561.174 62 560.108 62.8C555.841 65.7333 552.374 69.9333 549.708 75.4C547.174 80.7333 545.508 86 544.708 91.2V91C544.708 95.9333 544.708 100.867 544.708 105.8C544.708 110.733 544.708 115.667 544.708 120.6V145.2C544.708 147.467 545.308 148.933 546.508 149.6C547.841 150.267 549.374 150.533 551.108 150.4C552.974 150.133 554.641 150 556.108 150C557.974 150 558.908 151 558.908 153C558.908 155.133 557.841 156.2 555.708 156.2C551.708 156.2 547.708 156.133 543.708 156C539.708 155.867 535.708 155.8 531.708 155.8C527.574 155.8 523.441 155.867 519.308 156C515.174 156.267 510.974 156.4 506.708 156.4C505.774 156.4 505.108 156.067 504.708 155.4C504.308 154.6 504.108 153.867 504.108 153.2C504.108 151.2 505.174 150.2 507.308 150.2C508.641 150.2 509.908 150.267 511.108 150.4C512.441 150.4 513.774 150.4 515.108 150.4C516.708 150.4 517.774 149.867 518.308 148.8C518.841 147.733 519.108 146.533 519.108 145.2C519.108 135.733 519.108 126.2 519.108 116.6C519.108 107 519.108 97.4667 519.108 88C519.108 85.4667 519.108 82.9333 519.108 80.4C519.108 77.8667 519.108 75.3333 519.108 72.8C519.108 71.3333 518.974 69.6 518.708 67.6C518.441 65.6 517.841 63.8 516.908 62.2C516.108 60.6 514.708 59.8 512.708 59.8C511.374 59.8 510.041 60 508.708 60.4C507.508 60.6667 506.174 60.8 504.708 60.8C502.708 60.8 501.708 59.8 501.708 57.8C501.708 56.3333 502.441 55.3333 503.908 54.8C505.774 54.1333 507.708 53.7333 509.708 53.6C511.708 53.3333 513.641 53 515.508 52.6C517.241 52.2 519.508 51.6667 522.308 51C525.108 50.2 527.841 49.5333 530.508 49C533.308 48.3333 535.441 48 536.908 48C538.908 48 540.374 48.7333 541.308 50.2C541.708 50.8667 542.108 52.4667 542.508 55C542.908 57.4 543.241 59.8667 543.508 62.4C543.774 64.9333 543.908 66.7333 543.908 67.8C548.041 62.6 552.641 57.8667 557.708 53.6C562.774 49.3333 568.908 47.2 576.108 47.2C577.974 47.2 579.908 47.6 581.908 48.4C584.041 49.0667 585.374 50.4667 585.908 52.6C586.574 55.1333 587.108 58.4 587.508 62.4C587.908 66.2667 588.108 69.5333 588.108 72.2ZM650.975 80C650.975 76.5333 650.375 72.9333 649.175 69.2C648.108 65.3333 646.308 62.0667 643.775 59.4C641.375 56.7333 638.042 55.4 633.775 55.4C631.642 55.4 629.575 55.6667 627.575 56.2C625.575 56.7333 623.642 57.7333 621.775 59.2C618.042 62.1333 615.042 66.2667 612.775 71.6C610.642 76.9333 609.108 82.6 608.175 88.6C607.375 94.4667 606.975 99.6667 606.975 104.2C606.975 107.933 607.175 112.333 607.575 117.4C608.108 122.333 609.108 127.2 610.575 132C612.042 136.8 614.242 140.8 617.175 144C620.108 147.067 624.108 148.6 629.175 148.6C632.242 148.6 635.242 147.533 638.175 145.4C641.108 143.133 643.708 140.467 645.975 137.4C648.375 134.333 650.042 131.467 650.975 128.8V80ZM692.975 147.6C692.975 148.8 692.042 150 690.175 151.2C688.442 152.267 686.308 153.2 683.775 154C681.242 154.8 678.775 155.467 676.375 156C673.975 156.4 672.242 156.6 671.175 156.6C666.375 156.6 662.442 155.133 659.375 152.2C656.308 149.267 653.908 145.733 652.175 141.6C649.508 145.333 645.908 148.667 641.375 151.6C636.975 154.533 632.442 156 627.775 156C623.642 156 619.242 155.6 614.575 154.8C610.042 154 605.975 152.4 602.375 150C595.042 145.067 589.575 138.533 585.975 130.4C582.375 122.133 580.575 113.733 580.575 105.2C580.575 94.1333 582.575 84.4667 586.575 76.2C590.708 67.8 596.708 61.2667 604.575 56.6C612.442 51.9333 622.042 49.6 633.375 49.6C636.175 49.6 639.108 50.2 642.175 51.4C645.375 52.4667 648.175 53.6667 650.575 55V20.4C650.575 18.9333 650.375 17.2667 649.975 15.4C649.708 13.4 648.575 12.4 646.575 12.4C644.575 12.4 642.575 12.4667 640.575 12.6C638.708 12.7333 636.842 12.8 634.975 12.8C633.108 12.8 632.175 12 632.175 10.4C632.175 8.8 632.908 7.93333 634.375 7.79999C635.442 7.53333 636.508 7.39999 637.575 7.39999C638.642 7.39999 639.642 7.33333 640.575 7.2C643.108 6.93333 645.575 6.59999 647.975 6.2C650.375 5.79999 652.775 5.39999 655.175 4.99999C657.708 4.46665 660.175 3.93332 662.575 3.4C664.975 2.86666 667.375 2.26666 669.775 1.6C670.442 1.33333 671.042 1.13332 671.575 0.999993C672.108 0.866661 672.642 0.799995 673.175 0.799995C675.175 0.799995 676.175 1.86666 676.175 3.99999V134.2C676.175 135.8 676.242 137.667 676.375 139.8C676.642 141.8 677.242 143.6 678.175 145.2C679.242 146.667 680.842 147.4 682.975 147.4C684.442 147.4 685.908 147.067 687.375 146.4C688.975 145.733 690.242 145.4 691.175 145.4C691.842 145.4 692.308 145.667 692.575 146.2C692.842 146.6 692.975 147.067 692.975 147.6ZM835.064 83.4C835.064 78.3333 834.664 72.7333 833.864 66.6C833.064 60.3333 831.731 54.1333 829.864 48C827.997 41.8667 825.464 36.2667 822.264 31.2C819.064 26 815.064 21.8667 810.264 18.8C805.597 15.6 799.997 14 793.464 14C786.931 14 781.264 15.6 776.464 18.8C771.664 21.8667 767.597 26 764.264 31.2C761.064 36.2667 758.464 41.8667 756.464 48C754.464 54.1333 752.997 60.3333 752.064 66.6C751.264 72.7333 750.864 78.3333 750.864 83.4C750.864 88.4667 751.331 94.0667 752.264 100.2C753.197 106.2 754.664 112.267 756.664 118.4C758.664 124.4 761.264 129.933 764.464 135C767.797 139.933 771.864 143.933 776.664 147C781.464 149.933 787.064 151.4 793.464 151.4C800.131 151.4 805.797 149.933 810.464 147C815.264 143.933 819.197 139.933 822.264 135C825.464 130.067 827.997 124.6 829.864 118.6C831.731 112.6 833.064 106.533 833.864 100.4C834.664 94.2667 835.064 88.6 835.064 83.4ZM864.064 83C864.064 98.0667 861.397 111.2 856.064 122.4C850.731 133.6 842.797 142.267 832.264 148.4C821.864 154.533 808.931 157.6 793.464 157.6C778.264 157.6 765.397 154.533 754.864 148.4C744.331 142.133 736.331 133.467 730.864 122.4C725.397 111.2 722.664 98.2 722.664 83.4C722.664 73 724.264 63.2667 727.464 54.2C730.797 45 735.531 36.9333 741.664 30C747.931 23.0667 755.397 17.6667 764.064 13.8C772.864 9.93333 782.664 8 793.464 8C808.664 8 821.531 11.2 832.064 17.6C842.597 23.8667 850.531 32.6667 855.864 44C861.331 55.2 864.064 68.2 864.064 83ZM933.927 146.4C933.927 148.267 932.927 149.933 930.927 151.4C929.06 152.733 926.66 153.867 923.727 154.8C920.927 155.6 918.06 156.2 915.127 156.6C912.193 157 909.727 157.2 907.727 157.2C897.727 157.2 890.793 155.2 886.927 151.2C883.06 147.067 881.127 140.267 881.127 130.8C881.127 119.333 881.193 107.867 881.327 96.4C881.46 84.9333 881.527 73.4667 881.527 62H872.327C870.993 62 869.86 62.4667 868.927 63.4C867.993 64.2 867.127 64.6 866.327 64.6C864.993 64.6 864.327 63.9333 864.327 62.6C864.327 62.0667 864.593 61.0667 865.127 59.6C865.66 58.1333 866.06 57.2 866.327 56.8C866.727 56 867.127 55.5333 867.527 55.4C867.927 55.2667 868.527 55.2 869.327 55.2H881.727V33.8C885.06 31.9333 888.727 29.2 892.727 25.6C896.727 22 899.793 18.6667 901.927 15.6C902.327 14.9333 902.86 14.2667 903.527 13.6C904.193 12.8 904.993 12.4 905.927 12.4C908.06 12.4 909.06 13.3333 908.927 15.2L908.327 55.2H928.927C929.993 55.2 930.927 55.4667 931.727 56C932.66 56.4 933.127 57.2 933.127 58.4C933.127 60.9333 931.727 62.2 928.927 62.2H908.327L907.927 139.4C907.927 141.533 908.327 143.6 909.127 145.6C910.06 147.467 911.793 148.4 914.327 148.4C916.593 148.4 918.86 148.2 921.127 147.8C923.527 147.4 925.727 146.733 927.727 145.8C928.393 145.533 928.993 145.267 929.527 145C930.193 144.6 930.86 144.4 931.527 144.4C933.127 144.4 933.927 145.067 933.927 146.4ZM1041.54 148.6C1041.54 149.667 1040.87 150.6 1039.54 151.4C1035.94 153.933 1032.61 155.467 1029.54 156C1026.47 156.533 1022.81 156.8 1018.54 156.8C1014.41 156.8 1010.87 155.067 1007.94 151.6C1005.14 148.133 1003.41 144.533 1002.74 140.8C998.874 146.133 994.274 150.267 988.941 153.2C983.741 156 977.807 157.4 971.141 157.4C958.341 157.4 949.274 154.467 943.941 148.6C938.607 142.6 935.941 133.333 935.941 120.8V107.4C935.941 100.467 935.941 93.6 935.941 86.8C936.074 79.8667 936.141 72.9333 936.141 66C936.141 64.5333 935.941 62.9333 935.541 61.2C935.141 59.4667 933.941 58.6 931.941 58.6C931.141 58.6 930.341 58.6667 929.541 58.8C928.874 58.9333 928.141 59 927.341 59C926.407 59 925.341 58.8667 924.141 58.6C922.941 58.3333 922.341 57.6 922.341 56.4C922.341 55.3333 922.541 54.6 922.941 54.2C923.474 53.8 924.141 53.5333 924.941 53.4C926.407 53 928.007 52.7333 929.741 52.6C931.474 52.4667 933.074 52.3333 934.541 52.2C941.874 51.2667 949.407 49.8667 957.141 48C957.941 47.7333 958.674 47.6 959.341 47.6C961.207 47.6 962.141 48.4667 962.141 50.2C962.141 61.6667 962.007 73.2 961.741 84.8C961.474 96.2667 961.341 107.733 961.341 119.2C961.341 122.4 961.407 125.8 961.541 129.4C961.807 132.867 962.407 136.133 963.341 139.2C964.407 142.267 966.141 144.733 968.541 146.6C970.941 148.467 974.274 149.4 978.541 149.4C983.074 149.4 987.207 147.667 990.941 144.2C994.674 140.6 997.407 136.933 999.141 133.2C999.274 132.933 999.541 132.333 999.941 131.4C1000.34 130.333 1000.54 129.733 1000.54 129.6C1000.54 118.933 1000.47 108.333 1000.34 97.8C1000.34 87.1333 1000.34 76.5333 1000.34 66C1000.34 64.5333 1000.14 62.9333 999.741 61.2C999.341 59.4667 998.141 58.6 996.141 58.6C995.341 58.6 994.541 58.6667 993.741 58.8C992.941 58.9333 992.074 59 991.141 59C990.207 59 989.141 58.8667 987.941 58.6C986.874 58.3333 986.341 57.6 986.341 56.4C986.341 55.3333 986.541 54.6 986.941 54.2C987.474 53.8 988.141 53.5333 988.941 53.4C990.407 53 992.007 52.7333 993.741 52.6C995.474 52.4667 997.141 52.3333 998.741 52.2C1006.21 51.1333 1013.61 49.7333 1020.94 48C1021.34 47.8667 1021.67 47.8 1021.94 47.8C1022.34 47.6667 1022.74 47.6 1023.14 47.6C1025.14 47.6 1026.14 48.4667 1026.14 50.2C1026.14 64.7333 1026.07 79.3333 1025.94 94C1025.81 108.533 1025.74 123.133 1025.74 137.8C1025.74 139.133 1025.81 140.667 1025.94 142.4C1026.07 144 1026.54 145.467 1027.34 146.8C1028.14 148 1029.47 148.6 1031.34 148.6C1032.81 148.6 1034.27 148.267 1035.74 147.6C1037.21 146.8 1038.47 146.4 1039.54 146.4C1040.21 146.4 1040.67 146.667 1040.94 147.2C1041.34 147.6 1041.54 148.067 1041.54 148.6ZM1147.93 51.8C1147.93 53.6667 1146.99 54.6667 1145.13 54.8C1143.26 54.8 1141.66 54.8 1140.33 54.8C1138.59 54.8 1137.19 55.4 1136.13 56.6C1135.06 57.6667 1134.19 58.9333 1133.53 60.4C1128.33 71.6 1123.06 82.7333 1117.73 93.8C1112.39 104.867 1107.19 116 1102.13 127.2C1098.79 134.933 1095.26 142.733 1091.53 150.6C1087.93 158.333 1084.19 166 1080.33 173.6C1079.26 175.733 1078.13 177.867 1076.93 180C1075.86 182.267 1074.66 184.533 1073.33 186.8C1070.93 190.533 1067.99 193.2 1064.53 194.8C1061.06 196.533 1057.13 197.4 1052.73 197.4C1048.19 197.4 1044.13 196 1040.53 193.2C1036.93 190.533 1035.13 186.733 1035.13 181.8C1035.13 178.733 1036.26 176.2 1038.53 174.2C1040.93 172.333 1043.59 171.4 1046.53 171.4C1047.99 171.4 1049.26 171.667 1050.33 172.2C1050.19 175.933 1050.79 178.533 1052.13 180C1053.46 181.6 1055.99 182.4 1059.73 182.4C1060.93 182.4 1062.13 182.067 1063.33 181.4C1064.53 180.867 1065.59 180.267 1066.53 179.6C1067.73 178.667 1069.13 177 1070.73 174.6C1072.46 172.333 1073.99 169.867 1075.33 167.2C1076.79 164.667 1077.66 162.667 1077.93 161.2C1078.06 160.533 1078.19 159.8 1078.33 159C1078.46 158.2 1078.53 157.467 1078.53 156.8C1078.53 152.933 1077.59 148 1075.73 142C1073.86 135.867 1071.53 129.4 1068.73 122.6C1066.06 115.8 1063.39 109.4 1060.73 103.4C1058.06 97.2667 1055.93 92.2 1054.33 88.2C1052.59 83.6667 1050.73 79.1333 1048.73 74.6C1046.86 69.9333 1044.59 65.6 1041.93 61.6C1040.46 59.3333 1038.73 58.0667 1036.73 57.8C1034.86 57.5333 1032.73 57.4 1030.33 57.4C1029.79 57.4 1029.19 57.2 1028.53 56.8C1027.99 56.4 1027.73 55.8667 1027.73 55.2C1027.73 53.3333 1028.59 52.2 1030.33 51.8C1034.06 51.1333 1037.93 50.6667 1041.93 50.4C1046.06 50 1049.99 49.5333 1053.73 49C1055.19 48.7333 1056.59 48.5333 1057.93 48.4C1059.39 48.2667 1060.79 48.2 1062.13 48.2C1063.99 48.2 1065.26 48.6 1065.93 49.4C1066.59 50.0667 1067.19 51.1333 1067.73 52.6C1069.59 56.6 1071.26 60.6667 1072.73 64.8C1074.33 68.9333 1075.86 73.1333 1077.33 77.4C1080.13 85.2667 1083.06 93.2 1086.13 101.2C1089.19 109.2 1091.99 117.267 1094.53 125.4C1095.59 123 1097.13 119.4 1099.13 114.6C1101.26 109.667 1103.53 104.267 1105.93 98.4C1108.46 92.4 1110.86 86.4667 1113.13 80.6C1115.39 74.7333 1117.26 69.5333 1118.73 65C1120.19 60.3333 1120.93 57.0667 1120.93 55.2C1120.93 54.5333 1120.53 54.2 1119.73 54.2C1118.93 54.0667 1118.33 54 1117.93 54C1116.59 54 1115.19 54.0667 1113.73 54.2C1112.39 54.2 1110.99 54.2 1109.53 54.2C1108.46 54.2 1107.53 54.0667 1106.73 53.8C1105.93 53.5333 1105.53 52.7333 1105.53 51.4C1105.53 49.8 1105.93 48.9333 1106.73 48.8C1107.66 48.6667 1108.66 48.6 1109.73 48.6C1115.59 48.6 1121.46 48.6 1127.33 48.6C1133.33 48.4667 1139.19 48.4 1144.93 48.4C1146.93 48.4 1147.93 49.5333 1147.93 51.8ZM1197.28 134.8C1196.88 128.533 1196.61 122.267 1196.48 116C1196.34 109.6 1196.34 103.2 1196.48 96.8C1191.01 97.7333 1185.68 99.4667 1180.48 102C1175.41 104.4 1171.21 107.667 1167.88 111.8C1164.54 115.933 1162.88 121.2 1162.88 127.6C1162.88 130.267 1163.21 133.133 1163.88 136.2C1164.68 139.267 1166.01 141.867 1167.88 144C1169.88 146 1172.54 147 1175.88 147C1178.28 147 1180.81 146.333 1183.48 145C1186.14 143.533 1188.68 141.867 1191.08 140C1193.61 138.133 1195.68 136.4 1197.28 134.8ZM1238.48 146.6C1238.48 147.133 1238.21 147.733 1237.68 148.4C1237.28 149.067 1236.88 149.6 1236.48 150C1232.34 154.8 1227.01 157.2 1220.48 157.2C1214.74 157.2 1210.14 155.933 1206.68 153.4C1203.21 150.867 1200.54 146.933 1198.68 141.6C1194.41 146.133 1189.81 149.733 1184.88 152.4C1180.08 155.067 1174.41 156.4 1167.88 156.4C1163.21 156.4 1158.48 155.4 1153.68 153.4C1149.01 151.267 1145.08 148.267 1141.88 144.4C1138.81 140.533 1137.28 136.067 1137.28 131C1137.28 125.933 1138.54 121.467 1141.08 117.6C1143.74 113.6 1147.08 110.2 1151.08 107.4C1155.08 104.467 1159.14 102.067 1163.28 100.2C1168.61 97.9333 1174.08 96.2 1179.68 95C1185.28 93.6667 1190.88 92.3333 1196.48 91V90.2C1196.48 87.8 1196.41 84.6 1196.28 80.6C1196.28 76.4667 1195.88 72.4 1195.08 68.4C1194.28 64.2667 1192.94 60.8 1191.08 58C1189.21 55.0667 1186.48 53.6 1182.88 53.6C1178.74 53.6 1175.01 54.8 1171.68 57.2C1168.48 59.6 1166.21 62.8 1164.88 66.8C1164.61 68 1164.41 69.2 1164.28 70.4C1164.14 71.4667 1163.94 72.6 1163.68 73.8C1163.41 75.9333 1162.14 77.4 1159.88 78.2C1157.74 78.8667 1155.74 79.2 1153.88 79.2C1151.61 79.2 1149.41 78.7333 1147.28 77.8C1145.14 76.7333 1144.08 74.8 1144.08 72C1144.08 70.9333 1144.21 70 1144.48 69.2C1144.88 68.2667 1145.28 67.3333 1145.68 66.4C1147.81 61.3333 1151.01 57.6 1155.28 55.2C1159.54 52.8 1164.21 51.2 1169.28 50.4C1174.48 49.6 1179.41 49.2 1184.08 49.2C1195.01 49.2 1204.01 52.1333 1211.08 58C1218.14 63.8667 1221.68 72.5333 1221.68 84V114.2C1221.54 117.933 1221.48 121.8 1221.48 125.8C1221.61 129.667 1221.81 133.533 1222.08 137.4C1222.34 139.667 1222.88 141.867 1223.68 144C1224.48 146 1226.28 147 1229.08 147C1230.94 147 1232.48 146.6 1233.68 145.8C1235.01 145 1236.21 144.6 1237.28 144.6C1237.81 144.6 1238.14 144.867 1238.28 145.4C1238.41 145.933 1238.48 146.333 1238.48 146.6Z" fill="#FFDAA1" fill-opacity="0.27"/>
</svg>
